<?xml version="1.0" encoding="UTF-8" ?>
<!DOCTYPE svg PUBLIC "-//W3C//DTD SVG 1.1//EN" "http://www.w3.org/Graphics/SVG/1.1/DTD/svg11.dtd">
<svg viewBox="0 0 128 128" version="1.1" xmlns="http://www.w3.org/2000/svg">
<path fill="#047f02" d=" M 55.53 11.07 C 60.64 6.27 67.95 3.16 74.98 4.97 C 80.62 6.18 85.05 10.39 87.85 15.27 C 92.55 14.13 97.97 13.97 102.02 17.01 C 106.74 20.81 109.14 26.94 108.99 32.93 C 108.91 36.69 113.36 37.23 115.22 39.78 C 121.17 45.48 121.81 56.93 114.19 61.52 C 117.03 65.30 117.63 70.51 115.80 74.86 C 112.62 83.09 103.17 89.33 94.30 86.58 C 94.65 89.21 93.22 91.65 91.14 93.17 C 87.25 96.24 82.41 97.99 77.50 98.51 C 77.59 94.36 78.30 90.27 79.02 86.19 C 83.32 85.67 87.65 84.85 91.20 82.19 C 93.74 82.78 96.27 83.41 98.82 83.96 C 105.62 83.14 112.20 77.87 113.46 70.97 C 114.27 66.91 111.30 63.76 109.03 60.83 C 112.01 58.41 115.98 56.27 116.34 51.97 C 117.48 45.24 111.89 39.62 105.73 38.11 C 105.91 31.61 104.81 23.96 99.17 19.86 C 95.20 16.97 90.18 18.42 85.88 19.63 C 83.32 14.92 79.87 9.95 74.26 8.77 C 67.26 6.88 60.71 11.35 56.01 16.09 C 53.24 13.53 47.68 12.42 46.42 17.10 C 40.72 14.75 34.06 14.94 28.48 17.54 C 26.37 18.57 24.29 20.47 24.27 22.98 C 24.56 25.40 26.46 27.14 27.79 29.04 C 25.96 31.06 23.10 31.47 20.96 33.06 C 15.76 36.97 11.95 42.48 9.25 48.35 C 8.36 50.43 7.57 53.08 9.03 55.10 C 11.27 56.31 13.84 55.32 16.14 54.85 C 16.43 55.36 17.02 56.38 17.31 56.89 C 15.58 59.25 12.68 60.78 11.82 63.79 C 9.44 70.26 13.84 77.64 20.34 79.43 C 21.98 81.05 24.57 79.51 26.61 79.44 C 27.36 83.64 27.88 88.64 31.99 91.01 C 35.60 92.97 39.52 90.75 42.34 88.43 C 45.35 90.51 44.37 95.27 47.52 97.28 C 49.97 97.60 52.45 97.36 54.91 97.33 C 54.70 98.19 54.27 99.92 54.06 100.78 C 48.84 103.09 42.70 99.37 41.81 93.87 C 38.42 97.59 32.51 96.92 28.66 94.31 C 25.07 91.81 23.37 87.31 23.43 83.05 C 11.62 83.47 3.84 67.92 10.84 58.54 C 6.19 58.11 4.14 52.76 5.65 48.77 C 8.58 40.10 14.68 32.17 23.03 28.14 C 20.84 24.73 20.79 19.79 24.21 17.16 C 29.63 12.91 37.25 12.05 43.79 13.84 C 45.95 9.66 51.65 9.15 55.53 11.07 Z" />
<path fill="#99ff66" d=" M 56.01 16.09 C 60.71 11.35 67.26 6.88 74.26 8.77 C 79.87 9.95 83.32 14.92 85.88 19.63 C 90.18 18.42 95.20 16.97 99.17 19.86 C 104.81 23.96 105.91 31.61 105.73 38.11 C 111.89 39.62 117.48 45.24 116.34 51.97 C 115.98 56.27 112.01 58.41 109.03 60.83 C 111.30 63.76 114.27 66.91 113.46 70.97 C 112.20 77.87 105.62 83.14 98.82 83.96 C 103.68 78.67 105.73 70.74 102.17 64.18 C 105.78 58.80 106.71 50.99 102.26 45.82 C 100.93 43.97 98.39 43.54 97.05 41.80 C 96.37 38.74 97.28 35.31 95.42 32.53 C 93.13 27.26 86.97 24.81 81.51 25.64 C 79.33 21.94 76.44 18.32 72.14 17.10 C 66.34 15.09 60.52 18.26 56.06 21.76 C 54.30 21.66 52.44 21.07 50.73 21.69 C 49.48 22.51 48.37 23.53 47.22 24.49 C 44.11 22.86 40.51 23.36 37.14 23.46 C 34.61 23.50 33.13 25.89 31.39 27.38 C 31.33 30.51 31.44 33.65 31.79 36.76 C 25.35 40.79 17.93 46.72 18.26 55.10 C 18.04 58.35 21.05 60.18 23.50 61.56 C 20.66 66.16 19.64 72.13 22.05 77.13 L 23.91 78.10 C 22.72 78.56 21.53 78.98 20.34 79.43 C 13.84 77.64 9.44 70.26 11.82 63.79 C 12.68 60.78 15.58 59.25 17.31 56.89 C 17.02 56.38 16.43 55.36 16.14 54.85 C 13.84 55.32 11.27 56.31 9.03 55.10 C 7.57 53.08 8.36 50.43 9.25 48.35 C 11.95 42.48 15.76 36.97 20.96 33.06 C 23.10 31.47 25.96 31.06 27.79 29.04 C 26.46 27.14 24.56 25.40 24.27 22.98 C 24.29 20.47 26.37 18.57 28.48 17.54 C 34.06 14.94 40.72 14.75 46.42 17.10 C 47.68 12.42 53.24 13.53 56.01 16.09 Z" />
<path fill="#36b41b" d=" M 56.06 21.76 C 60.52 18.26 66.34 15.09 72.14 17.10 C 76.44 18.32 79.33 21.94 81.51 25.64 C 86.97 24.81 93.13 27.26 95.42 32.53 C 97.28 35.31 96.37 38.74 97.05 41.80 C 98.39 43.54 100.93 43.97 102.26 45.82 C 106.71 50.99 105.78 58.80 102.17 64.18 C 105.73 70.74 103.68 78.67 98.82 83.96 C 96.27 83.41 93.74 82.78 91.20 82.19 C 87.65 84.85 83.32 85.67 79.02 86.19 C 79.93 81.70 81.11 77.22 83.09 73.07 C 84.15 70.75 85.95 68.65 85.90 65.97 C 78.10 68.52 70.85 73.29 65.53 79.60 C 58.89 75.30 50.83 74.60 43.12 74.60 C 42.86 74.95 42.35 75.66 42.09 76.01 C 46.31 79.35 51.21 82.34 53.59 87.39 C 55.20 90.44 55.21 93.98 54.91 97.33 C 52.45 97.36 49.97 97.60 47.52 97.28 C 44.37 95.27 45.35 90.51 42.34 88.43 C 39.52 90.75 35.60 92.97 31.99 91.01 C 27.88 88.64 27.36 83.64 26.61 79.44 C 24.57 79.51 21.98 81.05 20.34 79.43 C 21.53 78.98 22.72 78.56 23.91 78.10 L 22.05 77.13 C 19.64 72.13 20.66 66.16 23.50 61.56 C 21.05 60.18 18.04 58.35 18.26 55.10 C 17.93 46.72 25.35 40.79 31.79 36.76 C 31.44 33.65 31.33 30.51 31.39 27.38 C 33.13 25.89 34.61 23.50 37.14 23.46 C 40.51 23.36 44.11 22.86 47.22 24.49 C 48.37 23.53 49.48 22.51 50.73 21.69 C 52.44 21.07 54.30 21.66 56.06 21.76 Z" />
<path fill="#9a4d00" d=" M 65.53 79.60 C 70.85 73.29 78.10 68.52 85.90 65.97 C 85.95 68.65 84.15 70.75 83.09 73.07 C 81.11 77.22 79.93 81.70 79.02 86.19 C 78.30 90.27 77.59 94.36 77.50 98.51 C 76.73 105.08 79.24 112.76 86.10 114.95 C 84.95 116.81 83.88 119.12 81.55 119.70 C 77.63 121.18 73.51 119.43 69.75 118.27 C 68.42 121.27 67.32 124.62 64.75 126.82 C 64.34 126.84 63.53 126.87 63.12 126.88 C 60.53 124.77 58.54 122.00 57.01 119.04 C 52.50 120.51 47.80 119.41 43.25 118.86 C 41.49 118.92 37.80 120.54 38.18 117.38 C 45.72 114.71 51.71 108.42 54.06 100.78 C 54.27 99.92 54.70 98.19 54.91 97.33 C 55.21 93.98 55.20 90.44 53.59 87.39 C 51.21 82.34 46.31 79.35 42.09 76.01 C 42.35 75.66 42.86 74.95 43.12 74.60 C 50.83 74.60 58.89 75.30 65.53 79.60 Z" />
<path fill="#d29f00" d=" M 67.68 80.60 C 71.58 76.38 76.66 73.49 81.63 70.72 C 77.03 79.44 74.64 89.18 73.93 98.97 C 74.12 102.99 74.26 107.18 76.04 110.88 C 77.11 113.28 79.37 114.79 81.12 116.65 C 76.54 117.49 72.60 114.67 68.21 114.11 C 66.37 116.58 65.13 119.41 63.73 122.14 C 61.47 120.38 59.93 117.94 58.09 115.79 C 54.53 116.77 50.85 117.62 47.13 117.15 C 49.84 114.24 52.98 111.62 54.68 107.91 C 57.49 102.11 60.13 95.33 58.02 88.91 C 56.67 83.70 52.46 80.02 48.40 76.83 C 53.90 76.52 58.92 79.13 63.81 81.27 C 63.52 82.63 63.23 84.00 62.97 85.37 C 65.32 84.72 66.10 82.19 67.68 80.60 Z" />

<g transform="translate(78,8)">
<g transform="scale(.16)">
<path fill="#ffd300" d=" M 0.00 0.00 L 41.71 0.00 C 41.47 72.33 42.34 144.67 42.15 217.00 C 42.14 224.80 42.48 232.60 41.76 240.38 C 31.88 228.25 24.23 214.48 17.66 200.33 C 13.04 190.39 9.42 180.01 6.74 169.39 C 4.03 157.75 1.60 145.94 1.60 133.94 C 0.24 114.65 0.98 95.32 0.78 76.00 C 0.66 68.09 1.28 60.13 0.00 52.28 L 0.00 0.00 Z" />
<path fill="#8b0000" d=" M 41.71 0.00 L 71.07 0.00 C 71.27 40.34 70.62 80.67 70.82 121.00 C 71.51 167.00 71.39 213.00 72.01 258.99 C 72.34 263.45 71.97 267.92 71.41 272.35 C 60.74 262.48 50.34 252.15 41.76 240.38 C 42.48 232.60 42.14 224.80 42.15 217.00 C 42.34 144.67 41.47 72.33 41.71 0.00 Z" />
<path fill="#ffd300" d=" M 71.07 0.00 L 101.74 0.00 C 101.27 35.34 102.52 70.66 102.33 106.00 C 102.36 163.00 102.34 220.00 102.34 277.00 C 102.46 283.15 102.45 289.31 101.86 295.44 C 90.94 288.82 80.91 280.85 71.41 272.35 C 71.97 267.92 72.34 263.45 72.01 258.99 C 71.39 213.00 71.51 167.00 70.82 121.00 C 70.62 80.67 71.27 40.34 71.07 0.00 Z" />
<path fill="#8b0000" d=" M 101.74 0.00 L 130.24 0.00 C 130.51 37.68 130.24 75.36 130.40 113.04 C 130.88 130.02 130.51 147.01 131.03 163.99 C 131.64 209.33 131.15 254.67 131.42 300.00 C 131.67 304.22 131.49 308.48 130.28 312.56 C 120.47 307.44 110.93 301.78 101.86 295.44 C 102.45 289.31 102.46 283.15 102.34 277.00 C 102.34 220.00 102.36 163.00 102.33 106.00 C 102.52 70.66 101.27 35.34 101.74 0.00 Z" />
<path fill="#ffd300" d=" M 130.24 0.00 L 161.00 0.00 C 161.15 38.67 162.13 77.34 161.38 116.01 C 161.44 158.34 161.39 200.67 161.39 243.00 C 161.08 253.01 162.36 262.99 162.11 273.00 C 162.08 286.04 162.26 299.09 162.32 312.13 C 157.33 314.65 152.34 317.18 147.50 320.00 L 145.36 320.00 C 140.35 317.50 135.30 315.05 130.28 312.56 C 131.49 308.48 131.67 304.22 131.42 300.00 C 131.15 254.67 131.64 209.33 131.03 163.99 C 130.51 147.01 130.88 130.02 130.40 113.04 C 130.24 75.36 130.51 37.68 130.24 0.00 Z" />
<path fill="#8b0000" d=" M 161.00 0.00 L 189.83 0.00 C 189.65 32.67 190.52 65.33 190.33 98.00 C 190.87 121.99 190.57 146.00 190.65 170.00 C 190.46 211.41 191.29 252.82 191.37 294.23 C 181.99 300.66 172.31 306.69 162.32 312.13 C 162.26 299.09 162.08 286.04 162.11 273.00 C 162.36 262.99 161.08 253.01 161.39 243.00 C 161.39 200.67 161.44 158.34 161.38 116.01 C 162.13 77.34 161.15 38.67 161.00 0.00 Z" />
<path fill="#ffd300" d=" M 189.83 0.00 L 217.90 0.00 C 218.59 44.01 218.28 88.02 218.37 132.03 C 219.06 161.68 218.29 191.35 219.09 221.00 C 219.11 238.08 219.17 255.17 219.40 272.25 C 210.71 280.37 201.31 287.70 191.37 294.23 C 191.29 252.82 190.46 211.41 190.65 170.00 C 190.57 146.00 190.87 121.99 190.33 98.00 C 190.52 65.33 189.65 32.67 189.83 0.00 Z" />
<path fill="#8b0000" d=" M 217.90 0.00 L 249.22 0.00 C 249.45 19.66 249.32 39.33 249.36 59.00 C 250.31 99.99 249.42 141.00 250.15 182.00 C 250.50 200.75 250.20 219.50 250.43 238.25 C 246.26 244.36 241.37 249.94 236.37 255.38 C 230.85 261.14 225.52 267.10 219.40 272.25 C 219.17 255.17 219.11 238.08 219.09 221.00 C 218.29 191.35 219.06 161.68 218.37 132.03 C 218.28 88.02 218.59 44.01 217.90 0.00 Z" />
<path fill="#ffd300" d=" M 249.22 0.00 L 289.00 0.00 L 289.00 137.36 C 287.94 143.17 287.33 149.04 286.64 154.91 C 281.46 185.04 268.73 213.80 250.43 238.25 C 250.20 219.50 250.50 200.75 250.15 182.00 C 249.42 141.00 250.31 99.99 249.36 59.00 C 249.32 39.33 249.45 19.66 249.22 0.00 Z" />
</g>
</g>

</svg>
