<?xml version="1.0" encoding="UTF-8" ?>
<!DOCTYPE svg PUBLIC "-//W3C//DTD SVG 1.1//EN" "http://www.w3.org/Graphics/SVG/1.1/DTD/svg11.dtd">
<svg viewBox="0 0 289 320" version="1.1" xmlns="http://www.w3.org/2000/svg">
<path fill="#ffd300" d=" M 0.00 0.00 L 41.71 0.00 C 41.47 72.33 42.34 144.67 42.15 217.00 C 42.14 224.80 42.48 232.60 41.76 240.38 C 31.88 228.25 24.23 214.48 17.66 200.33 C 13.04 190.39 9.42 180.01 6.74 169.39 C 4.03 157.75 1.60 145.94 1.60 133.94 C 0.24 114.65 0.98 95.32 0.78 76.00 C 0.66 68.09 1.28 60.13 0.00 52.28 L 0.00 0.00 Z" />
<path fill="#8b0000" d=" M 41.71 0.00 L 71.07 0.00 C 71.27 40.34 70.62 80.67 70.82 121.00 C 71.51 167.00 71.39 213.00 72.01 258.99 C 72.34 263.45 71.97 267.92 71.41 272.35 C 60.74 262.48 50.34 252.15 41.76 240.38 C 42.48 232.60 42.14 224.80 42.15 217.00 C 42.34 144.67 41.47 72.33 41.71 0.00 Z" />
<path fill="#ffd300" d=" M 71.07 0.00 L 101.74 0.00 C 101.27 35.34 102.52 70.66 102.33 106.00 C 102.36 163.00 102.34 220.00 102.34 277.00 C 102.46 283.15 102.45 289.31 101.86 295.44 C 90.94 288.82 80.91 280.85 71.41 272.35 C 71.97 267.92 72.34 263.45 72.01 258.99 C 71.39 213.00 71.51 167.00 70.82 121.00 C 70.62 80.67 71.27 40.34 71.07 0.00 Z" />
<path fill="#8b0000" d=" M 101.74 0.00 L 130.24 0.00 C 130.51 37.68 130.24 75.36 130.40 113.04 C 130.88 130.02 130.51 147.01 131.03 163.99 C 131.64 209.33 131.15 254.67 131.42 300.00 C 131.67 304.22 131.49 308.48 130.28 312.56 C 120.47 307.44 110.93 301.78 101.86 295.44 C 102.45 289.31 102.46 283.15 102.34 277.00 C 102.34 220.00 102.36 163.00 102.33 106.00 C 102.52 70.66 101.27 35.34 101.74 0.00 Z" />
<path fill="#ffd300" d=" M 130.24 0.00 L 161.00 0.00 C 161.15 38.67 162.13 77.34 161.38 116.01 C 161.44 158.34 161.39 200.67 161.39 243.00 C 161.08 253.01 162.36 262.99 162.11 273.00 C 162.08 286.04 162.26 299.09 162.32 312.13 C 157.33 314.65 152.34 317.18 147.50 320.00 L 145.36 320.00 C 140.35 317.50 135.30 315.05 130.28 312.56 C 131.49 308.48 131.67 304.22 131.42 300.00 C 131.15 254.67 131.64 209.33 131.03 163.99 C 130.51 147.01 130.88 130.02 130.40 113.04 C 130.24 75.36 130.51 37.68 130.24 0.00 Z" />
<path fill="#8b0000" d=" M 161.00 0.00 L 189.83 0.00 C 189.65 32.67 190.52 65.33 190.33 98.00 C 190.87 121.99 190.57 146.00 190.65 170.00 C 190.46 211.41 191.29 252.82 191.37 294.23 C 181.99 300.66 172.31 306.69 162.32 312.13 C 162.26 299.09 162.08 286.04 162.11 273.00 C 162.36 262.99 161.08 253.01 161.39 243.00 C 161.39 200.67 161.44 158.34 161.38 116.01 C 162.13 77.34 161.15 38.67 161.00 0.00 Z" />
<path fill="#ffd300" d=" M 189.83 0.00 L 217.90 0.00 C 218.59 44.01 218.28 88.02 218.37 132.03 C 219.06 161.68 218.29 191.35 219.09 221.00 C 219.11 238.08 219.17 255.17 219.40 272.25 C 210.71 280.37 201.31 287.70 191.37 294.23 C 191.29 252.82 190.46 211.41 190.65 170.00 C 190.57 146.00 190.87 121.99 190.33 98.00 C 190.52 65.33 189.65 32.67 189.83 0.00 Z" />
<path fill="#8b0000" d=" M 217.90 0.00 L 249.22 0.00 C 249.45 19.66 249.32 39.33 249.36 59.00 C 250.31 99.99 249.42 141.00 250.15 182.00 C 250.50 200.75 250.20 219.50 250.43 238.25 C 246.26 244.36 241.37 249.94 236.37 255.38 C 230.85 261.14 225.52 267.10 219.40 272.25 C 219.17 255.17 219.11 238.08 219.09 221.00 C 218.29 191.35 219.06 161.68 218.37 132.03 C 218.28 88.02 218.59 44.01 217.90 0.00 Z" />
<path fill="#ffd300" d=" M 249.22 0.00 L 289.00 0.00 L 289.00 137.36 C 287.94 143.17 287.33 149.04 286.64 154.91 C 281.46 185.04 268.73 213.80 250.43 238.25 C 250.20 219.50 250.50 200.75 250.15 182.00 C 249.42 141.00 250.31 99.99 249.36 59.00 C 249.32 39.33 249.45 19.66 249.22 0.00 Z" />
</svg>
